<svg width="32" height="32" viewBox="0 0 32 32" fill="none" xmlns="http://www.w3.org/2000/svg">
<path d="M9.33325 9.3335H7.99992C7.29267 9.3335 6.6144 9.61445 6.1143 10.1145C5.6142 10.6146 5.33325 11.2929 5.33325 12.0002V24.0002C5.33325 24.7074 5.6142 25.3857 6.1143 25.8858C6.6144 26.3859 7.29267 26.6668 7.99992 26.6668H19.9999C20.7072 26.6668 21.3854 26.3859 21.8855 25.8858C22.3856 25.3857 22.6666 24.7074 22.6666 24.0002V22.6668" stroke="black" stroke-width="3" stroke-linecap="round" stroke-linejoin="round"/>
<path d="M21.3333 6.66681L25.3333 10.6668M27.18 8.78014C27.7051 8.25501 28.0001 7.54279 28.0001 6.80014C28.0001 6.0575 27.7051 5.34527 27.18 4.82014C26.6549 4.29501 25.9426 4 25.2 4C24.4574 4 23.7451 4.29501 23.22 4.82014L12 16.0001V20.0001H16L27.18 8.78014Z" stroke="black" stroke-width="3" stroke-linecap="round" stroke-linejoin="round"/>
</svg>
