<svg width="24" height="24" viewBox="0 0 24 24" fill="none" xmlns="http://www.w3.org/2000/svg">
<path d="M5.84292 4.56789C7.47586 2.93495 9.6906 2.01758 11.9999 2.01758C14.3092 2.01758 16.524 2.93495 18.1569 4.56789C19.7899 6.20083 20.7072 8.41557 20.7072 10.7249C20.7072 13.0342 19.7899 15.249 18.1569 16.8819L16.9699 18.0559C16.0953 18.9139 14.9599 20.0179 13.5639 21.3679C13.1443 21.7736 12.5836 22.0004 11.9999 22.0004C11.4163 22.0004 10.8555 21.7736 10.4359 21.3679L6.94492 17.9719C6.50559 17.5412 6.13826 17.1779 5.84292 16.8819C5.03434 16.0734 4.39293 15.1135 3.95532 14.0571C3.51771 13.0006 3.29248 11.8684 3.29248 10.7249C3.29248 9.58142 3.51771 8.44914 3.95532 7.39272C4.39293 6.3363 5.03434 5.37642 5.84292 4.56789ZM17.0959 5.62789C16.4266 4.95861 15.632 4.42772 14.7574 4.06553C13.8829 3.70334 12.9456 3.51695 11.9991 3.517C11.0525 3.51704 10.1152 3.70353 9.24076 4.0658C8.36627 4.42807 7.5717 4.95904 6.90242 5.62839C6.23314 6.29774 5.70225 7.09236 5.34006 7.96688C4.97788 8.8414 4.79148 9.77869 4.79153 10.7252C4.79158 11.6718 4.97806 12.6091 5.34033 13.4836C5.70261 14.358 6.23358 15.1526 6.90292 15.8219L8.39092 17.2899C9.20959 18.0906 10.2389 19.0906 11.4789 20.2899C11.6187 20.4249 11.8055 20.5004 11.9999 20.5004C12.1943 20.5004 12.3811 20.4249 12.5209 20.2899L15.9159 16.9899C16.3859 16.5292 16.7793 16.1399 17.0959 15.8219C18.4474 14.4703 19.2067 12.6372 19.2067 10.7259C19.2067 8.81453 18.4474 6.98146 17.0959 5.62989M11.9999 7.99889C12.3942 7.99889 12.7845 8.07654 13.1487 8.2274C13.513 8.37827 13.8439 8.5994 14.1227 8.87816C14.4014 9.15692 14.6225 9.48786 14.7734 9.85208C14.9243 10.2163 15.0019 10.6067 15.0019 11.0009C15.0019 11.3951 14.9243 11.7855 14.7734 12.1497C14.6225 12.5139 14.4014 12.8449 14.1227 13.1236C13.8439 13.4024 13.513 13.6235 13.1487 13.7744C12.7845 13.9252 12.3942 14.0029 11.9999 14.0029C11.2134 13.9885 10.4639 13.666 9.91269 13.1047C9.36152 12.5433 9.05271 11.7881 9.05271 11.0014C9.05271 10.2147 9.36152 9.45944 9.91269 8.89812C10.4639 8.33679 11.2134 8.01425 11.9999 7.99989M11.9999 9.49989C11.6016 9.49989 11.2195 9.65814 10.9378 9.93982C10.6562 10.2215 10.4979 10.6035 10.4979 11.0019C10.4979 11.4002 10.6562 11.7823 10.9378 12.064C11.2195 12.3456 11.6016 12.5039 11.9999 12.5039C12.3914 12.4938 12.7635 12.3312 13.0369 12.0507C13.3102 11.7702 13.4632 11.394 13.4632 11.0024C13.4632 10.6107 13.3102 10.2346 13.0369 9.95411C12.7635 9.67362 12.3914 9.511 11.9999 9.50089" fill="black"/>
</svg>
